<mxfile host="Electron" modified="2023-08-09T09:53:31.290Z" agent="Mozilla/5.0 (Macintosh; Intel Mac OS X 10_15_7) AppleWebKit/537.36 (KHTML, like Gecko) draw.io/21.6.5 Chrome/114.0.5735.243 Electron/25.3.1 Safari/537.36" etag="vAr1Qy8lhRmRTf5Yb3sY" version="21.6.5" type="device">
  <diagram name="Page-1" id="gSFOo2CogLlwidSt94cw">
    <mxGraphModel dx="1468" dy="1037" grid="1" gridSize="10" guides="1" tooltips="1" connect="1" arrows="1" fold="1" page="1" pageScale="1" pageWidth="850" pageHeight="1100" math="0" shadow="0">
      <root>
        <mxCell id="0" />
        <mxCell id="1" style="" parent="0" />
        <mxCell id="BtulqSCK8blGL-9iJtS--1" value="" style="group;fontSize=16;fillColor=#1E1E2E;rounded=1;strokeColor=#F9E2AF;" vertex="1" connectable="0" parent="1">
          <mxGeometry x="120" y="160" width="200" height="40" as="geometry" />
        </mxCell>
        <mxCell id="BtulqSCK8blGL-9iJtS--2" value="" style="rounded=0;whiteSpace=wrap;html=1;fillColor=none;strokeColor=none;fontSize=16;" vertex="1" parent="BtulqSCK8blGL-9iJtS--1">
          <mxGeometry width="200" height="40" as="geometry" />
        </mxCell>
        <mxCell id="BtulqSCK8blGL-9iJtS--3" value="" style="html=1;whiteSpace=wrap;shape=isoCube2;backgroundOutline=1;isoAngle=15;fillColor=none;strokeColor=#F5E0DC;aspect=fixed;fontSize=16;" vertex="1" parent="BtulqSCK8blGL-9iJtS--1">
          <mxGeometry x="11" y="10" width="18" height="20" as="geometry" />
        </mxCell>
        <mxCell id="BtulqSCK8blGL-9iJtS--4" value="&lt;span style=&quot;border-color: var(--border-color);&quot;&gt;&lt;font style=&quot;font-size: 13px;&quot;&gt;BaseContinuity_&lt;/font&gt;&lt;/span&gt;" style="text;strokeColor=none;fillColor=none;align=left;verticalAlign=middle;spacingLeft=4;spacingRight=4;overflow=hidden;points=[[0,0.5],[1,0.5]];portConstraint=eastwest;rotatable=0;whiteSpace=wrap;html=1;fontSize=16;" vertex="1" parent="BtulqSCK8blGL-9iJtS--1">
          <mxGeometry x="40" y="5" width="150" height="30" as="geometry" />
        </mxCell>
        <mxCell id="BtulqSCK8blGL-9iJtS--35" value="" style="group;fillColor=none;" vertex="1" connectable="0" parent="1">
          <mxGeometry x="160" y="240" width="120" height="40" as="geometry" />
        </mxCell>
        <mxCell id="BtulqSCK8blGL-9iJtS--29" value="" style="group;fontSize=16;fillColor=#1E1E2E;rounded=1;strokeColor=#F9E2AF;container=0;" vertex="1" connectable="0" parent="BtulqSCK8blGL-9iJtS--35">
          <mxGeometry width="110" height="40" as="geometry" />
        </mxCell>
        <mxCell id="BtulqSCK8blGL-9iJtS--30" value="" style="rounded=0;whiteSpace=wrap;html=1;fillColor=none;strokeColor=none;fontSize=16;" vertex="1" parent="BtulqSCK8blGL-9iJtS--35">
          <mxGeometry width="120" height="40" as="geometry" />
        </mxCell>
        <mxCell id="BtulqSCK8blGL-9iJtS--31" value="" style="html=1;whiteSpace=wrap;shape=isoCube2;backgroundOutline=1;isoAngle=15;fillColor=none;strokeColor=#F5E0DC;aspect=fixed;fontSize=16;" vertex="1" parent="BtulqSCK8blGL-9iJtS--35">
          <mxGeometry x="11" y="10" width="18" height="20" as="geometry" />
        </mxCell>
        <mxCell id="BtulqSCK8blGL-9iJtS--32" value="&lt;span style=&quot;font-size: 13px;&quot;&gt;H1_&lt;/span&gt;" style="text;strokeColor=none;fillColor=none;align=left;verticalAlign=middle;spacingLeft=4;spacingRight=4;overflow=hidden;points=[[0,0.5],[1,0.5]];portConstraint=eastwest;rotatable=0;whiteSpace=wrap;html=1;fontSize=16;" vertex="1" parent="BtulqSCK8blGL-9iJtS--35">
          <mxGeometry x="40" y="5" width="60" height="30" as="geometry" />
        </mxCell>
        <mxCell id="BtulqSCK8blGL-9iJtS--36" value="" style="group" vertex="1" connectable="0" parent="1">
          <mxGeometry x="160" y="320" width="120" height="40" as="geometry" />
        </mxCell>
        <mxCell id="BtulqSCK8blGL-9iJtS--37" value="" style="group;fontSize=16;fillColor=#1E1E2E;rounded=1;strokeColor=#F9E2AF;container=0;" vertex="1" connectable="0" parent="BtulqSCK8blGL-9iJtS--36">
          <mxGeometry width="110" height="40" as="geometry" />
        </mxCell>
        <mxCell id="BtulqSCK8blGL-9iJtS--38" value="" style="rounded=0;whiteSpace=wrap;html=1;fillColor=none;strokeColor=none;fontSize=16;" vertex="1" parent="BtulqSCK8blGL-9iJtS--36">
          <mxGeometry width="120" height="40" as="geometry" />
        </mxCell>
        <mxCell id="BtulqSCK8blGL-9iJtS--39" value="" style="html=1;whiteSpace=wrap;shape=isoCube2;backgroundOutline=1;isoAngle=15;fillColor=none;strokeColor=#F5E0DC;aspect=fixed;fontSize=16;" vertex="1" parent="BtulqSCK8blGL-9iJtS--36">
          <mxGeometry x="11" y="10" width="18" height="20" as="geometry" />
        </mxCell>
        <mxCell id="BtulqSCK8blGL-9iJtS--40" value="&lt;span style=&quot;font-size: 13px;&quot;&gt;HDiv_&lt;/span&gt;" style="text;strokeColor=none;fillColor=none;align=left;verticalAlign=middle;spacingLeft=4;spacingRight=4;overflow=hidden;points=[[0,0.5],[1,0.5]];portConstraint=eastwest;rotatable=0;whiteSpace=wrap;html=1;fontSize=16;" vertex="1" parent="BtulqSCK8blGL-9iJtS--36">
          <mxGeometry x="40" y="5" width="60" height="30" as="geometry" />
        </mxCell>
        <mxCell id="BtulqSCK8blGL-9iJtS--41" value="" style="group" vertex="1" connectable="0" parent="1">
          <mxGeometry x="160" y="400" width="120" height="40" as="geometry" />
        </mxCell>
        <mxCell id="BtulqSCK8blGL-9iJtS--42" value="" style="group;fontSize=16;fillColor=#1E1E2E;rounded=1;strokeColor=#F9E2AF;container=0;" vertex="1" connectable="0" parent="BtulqSCK8blGL-9iJtS--41">
          <mxGeometry width="110" height="40" as="geometry" />
        </mxCell>
        <mxCell id="BtulqSCK8blGL-9iJtS--43" value="" style="rounded=0;whiteSpace=wrap;html=1;fillColor=none;strokeColor=none;fontSize=16;" vertex="1" parent="BtulqSCK8blGL-9iJtS--41">
          <mxGeometry width="120" height="40" as="geometry" />
        </mxCell>
        <mxCell id="BtulqSCK8blGL-9iJtS--44" value="" style="html=1;whiteSpace=wrap;shape=isoCube2;backgroundOutline=1;isoAngle=15;fillColor=none;strokeColor=#F5E0DC;aspect=fixed;fontSize=16;" vertex="1" parent="BtulqSCK8blGL-9iJtS--41">
          <mxGeometry x="11" y="10" width="18" height="20" as="geometry" />
        </mxCell>
        <mxCell id="BtulqSCK8blGL-9iJtS--45" value="&lt;span style=&quot;font-size: 13px;&quot;&gt;HCurl_&lt;/span&gt;" style="text;strokeColor=none;fillColor=none;align=left;verticalAlign=middle;spacingLeft=4;spacingRight=4;overflow=hidden;points=[[0,0.5],[1,0.5]];portConstraint=eastwest;rotatable=0;whiteSpace=wrap;html=1;fontSize=16;" vertex="1" parent="BtulqSCK8blGL-9iJtS--41">
          <mxGeometry x="40" y="5" width="60" height="30" as="geometry" />
        </mxCell>
        <mxCell id="BtulqSCK8blGL-9iJtS--46" value="" style="group" vertex="1" connectable="0" parent="1">
          <mxGeometry x="160" y="480" width="120" height="40" as="geometry" />
        </mxCell>
        <mxCell id="BtulqSCK8blGL-9iJtS--47" value="" style="group;fontSize=16;fillColor=#1E1E2E;rounded=1;strokeColor=#F9E2AF;container=0;" vertex="1" connectable="0" parent="BtulqSCK8blGL-9iJtS--46">
          <mxGeometry width="110" height="40" as="geometry" />
        </mxCell>
        <mxCell id="BtulqSCK8blGL-9iJtS--48" value="" style="rounded=0;whiteSpace=wrap;html=1;fillColor=none;strokeColor=none;fontSize=16;" vertex="1" parent="BtulqSCK8blGL-9iJtS--46">
          <mxGeometry width="120" height="40" as="geometry" />
        </mxCell>
        <mxCell id="BtulqSCK8blGL-9iJtS--49" value="" style="html=1;whiteSpace=wrap;shape=isoCube2;backgroundOutline=1;isoAngle=15;fillColor=none;strokeColor=#F5E0DC;aspect=fixed;fontSize=16;" vertex="1" parent="BtulqSCK8blGL-9iJtS--46">
          <mxGeometry x="11" y="10" width="18" height="20" as="geometry" />
        </mxCell>
        <mxCell id="BtulqSCK8blGL-9iJtS--50" value="&lt;span style=&quot;font-size: 13px;&quot;&gt;DG_&lt;/span&gt;" style="text;strokeColor=none;fillColor=none;align=left;verticalAlign=middle;spacingLeft=4;spacingRight=4;overflow=hidden;points=[[0,0.5],[1,0.5]];portConstraint=eastwest;rotatable=0;whiteSpace=wrap;html=1;fontSize=16;" vertex="1" parent="BtulqSCK8blGL-9iJtS--46">
          <mxGeometry x="40" y="5" width="60" height="30" as="geometry" />
        </mxCell>
      </root>
    </mxGraphModel>
  </diagram>
</mxfile>
